<mxfile host="app.diagrams.net" modified="2024-07-16T09:32:26.350Z" agent="Mozilla/5.0 (Windows NT 10.0; Win64; x64) AppleWebKit/537.36 (KHTML, like Gecko) Chrome/126.0.0.0 Safari/537.36" etag="qSu0OBqnYFdrTqskT2KW" version="24.6.5" type="github">
  <diagram id="R2lEEEUBdFMjLlhIrx00" name="Page-1">
    <mxGraphModel dx="1900" dy="1657" grid="1" gridSize="10" guides="1" tooltips="1" connect="1" arrows="1" fold="1" page="1" pageScale="1" pageWidth="850" pageHeight="1100" math="0" shadow="0" extFonts="Permanent Marker^https://fonts.googleapis.com/css?family=Permanent+Marker">
      <root>
        <mxCell id="0" />
        <mxCell id="1" parent="0" />
        <mxCell id="CbjxjudxFoMtGtYBYWGe-18" style="edgeStyle=orthogonalEdgeStyle;rounded=0;orthogonalLoop=1;jettySize=auto;html=1;exitX=0;exitY=0.5;exitDx=0;exitDy=0;entryX=1;entryY=0.5;entryDx=0;entryDy=0;endArrow=none;endFill=0;" parent="1" source="CbjxjudxFoMtGtYBYWGe-16" target="CbjxjudxFoMtGtYBYWGe-17" edge="1">
          <mxGeometry relative="1" as="geometry" />
        </mxCell>
        <mxCell id="CbjxjudxFoMtGtYBYWGe-16" value="Kunde" style="rounded=0;whiteSpace=wrap;html=1;" parent="1" vertex="1">
          <mxGeometry x="361.5" y="-100" width="120" height="60" as="geometry" />
        </mxCell>
        <mxCell id="CbjxjudxFoMtGtYBYWGe-17" value="&lt;u&gt;KdNr&lt;/u&gt;" style="ellipse;whiteSpace=wrap;html=1;strokeColor=#3333FF;" parent="1" vertex="1">
          <mxGeometry x="191.5" y="-95" width="90" height="50" as="geometry" />
        </mxCell>
        <mxCell id="CbjxjudxFoMtGtYBYWGe-27" style="edgeStyle=orthogonalEdgeStyle;rounded=0;orthogonalLoop=1;jettySize=auto;html=1;exitX=1;exitY=0.5;exitDx=0;exitDy=0;entryX=0;entryY=0.25;entryDx=0;entryDy=0;endArrow=none;endFill=0;" parent="1" source="CbjxjudxFoMtGtYBYWGe-20" target="CbjxjudxFoMtGtYBYWGe-16" edge="1">
          <mxGeometry relative="1" as="geometry" />
        </mxCell>
        <mxCell id="CbjxjudxFoMtGtYBYWGe-20" value="Vorname" style="ellipse;whiteSpace=wrap;html=1;strokeColor=#3333FF;" parent="1" vertex="1">
          <mxGeometry x="201.5" y="-180" width="90" height="50" as="geometry" />
        </mxCell>
        <mxCell id="CbjxjudxFoMtGtYBYWGe-29" style="edgeStyle=orthogonalEdgeStyle;rounded=0;orthogonalLoop=1;jettySize=auto;html=1;exitX=0.5;exitY=1;exitDx=0;exitDy=0;entryX=0.25;entryY=0;entryDx=0;entryDy=0;endArrow=none;endFill=0;" parent="1" source="CbjxjudxFoMtGtYBYWGe-21" target="CbjxjudxFoMtGtYBYWGe-16" edge="1">
          <mxGeometry relative="1" as="geometry" />
        </mxCell>
        <mxCell id="CbjxjudxFoMtGtYBYWGe-21" value="Name" style="ellipse;whiteSpace=wrap;html=1;strokeColor=#3333FF;" parent="1" vertex="1">
          <mxGeometry x="301.5" y="-230" width="90" height="50" as="geometry" />
        </mxCell>
        <mxCell id="CbjxjudxFoMtGtYBYWGe-31" style="edgeStyle=orthogonalEdgeStyle;rounded=0;orthogonalLoop=1;jettySize=auto;html=1;exitX=0.5;exitY=1;exitDx=0;exitDy=0;entryX=0.75;entryY=0;entryDx=0;entryDy=0;endArrow=none;endFill=0;" parent="1" source="CbjxjudxFoMtGtYBYWGe-22" target="CbjxjudxFoMtGtYBYWGe-16" edge="1">
          <mxGeometry relative="1" as="geometry" />
        </mxCell>
        <mxCell id="CbjxjudxFoMtGtYBYWGe-22" value="Strasse" style="ellipse;whiteSpace=wrap;html=1;strokeColor=#3333FF;" parent="1" vertex="1">
          <mxGeometry x="521.5" y="-200" width="90" height="50" as="geometry" />
        </mxCell>
        <mxCell id="CbjxjudxFoMtGtYBYWGe-30" style="edgeStyle=orthogonalEdgeStyle;rounded=0;orthogonalLoop=1;jettySize=auto;html=1;exitX=0.5;exitY=1;exitDx=0;exitDy=0;entryX=0.5;entryY=0;entryDx=0;entryDy=0;endArrow=none;endFill=0;" parent="1" source="CbjxjudxFoMtGtYBYWGe-23" target="CbjxjudxFoMtGtYBYWGe-16" edge="1">
          <mxGeometry relative="1" as="geometry" />
        </mxCell>
        <mxCell id="CbjxjudxFoMtGtYBYWGe-23" value="Geburtsdatum" style="ellipse;whiteSpace=wrap;html=1;strokeColor=#3333FF;" parent="1" vertex="1">
          <mxGeometry x="411.5" y="-230" width="90" height="50" as="geometry" />
        </mxCell>
        <mxCell id="CbjxjudxFoMtGtYBYWGe-32" style="edgeStyle=orthogonalEdgeStyle;rounded=0;orthogonalLoop=1;jettySize=auto;html=1;exitX=0;exitY=0.5;exitDx=0;exitDy=0;entryX=1;entryY=0.25;entryDx=0;entryDy=0;endArrow=none;endFill=0;" parent="1" source="CbjxjudxFoMtGtYBYWGe-24" target="CbjxjudxFoMtGtYBYWGe-16" edge="1">
          <mxGeometry relative="1" as="geometry" />
        </mxCell>
        <mxCell id="CbjxjudxFoMtGtYBYWGe-24" value="HausNr" style="ellipse;whiteSpace=wrap;html=1;strokeColor=#3333FF;" parent="1" vertex="1">
          <mxGeometry x="616.5" y="-131" width="90" height="50" as="geometry" />
        </mxCell>
        <mxCell id="CbjxjudxFoMtGtYBYWGe-33" style="edgeStyle=orthogonalEdgeStyle;rounded=0;orthogonalLoop=1;jettySize=auto;html=1;exitX=0;exitY=0.5;exitDx=0;exitDy=0;entryX=1;entryY=0.5;entryDx=0;entryDy=0;endArrow=none;endFill=0;" parent="1" source="CbjxjudxFoMtGtYBYWGe-25" target="CbjxjudxFoMtGtYBYWGe-16" edge="1">
          <mxGeometry relative="1" as="geometry">
            <Array as="points">
              <mxPoint x="601.5" y="-41" />
              <mxPoint x="601.5" y="-70" />
            </Array>
          </mxGeometry>
        </mxCell>
        <mxCell id="CbjxjudxFoMtGtYBYWGe-25" value="PLZ" style="ellipse;whiteSpace=wrap;html=1;strokeColor=#3333FF;" parent="1" vertex="1">
          <mxGeometry x="616.5" y="-66" width="90" height="50" as="geometry" />
        </mxCell>
        <mxCell id="CbjxjudxFoMtGtYBYWGe-34" style="edgeStyle=orthogonalEdgeStyle;rounded=0;orthogonalLoop=1;jettySize=auto;html=1;exitX=0;exitY=0.5;exitDx=0;exitDy=0;entryX=1;entryY=0.75;entryDx=0;entryDy=0;endArrow=none;endFill=0;" parent="1" source="CbjxjudxFoMtGtYBYWGe-26" target="CbjxjudxFoMtGtYBYWGe-16" edge="1">
          <mxGeometry relative="1" as="geometry" />
        </mxCell>
        <mxCell id="CbjxjudxFoMtGtYBYWGe-26" value="Stadt" style="ellipse;whiteSpace=wrap;html=1;strokeColor=#3333FF;" parent="1" vertex="1">
          <mxGeometry x="616.5" y="-6" width="90" height="50" as="geometry" />
        </mxCell>
        <mxCell id="DMuB1FqvteOAetmX3YVg-21" style="edgeStyle=orthogonalEdgeStyle;rounded=0;orthogonalLoop=1;jettySize=auto;html=1;exitX=0.5;exitY=1;exitDx=0;exitDy=0;entryX=0.5;entryY=0;entryDx=0;entryDy=0;" parent="1" source="CbjxjudxFoMtGtYBYWGe-35" target="DMuB1FqvteOAetmX3YVg-16" edge="1">
          <mxGeometry relative="1" as="geometry" />
        </mxCell>
        <mxCell id="DMuB1FqvteOAetmX3YVg-24" style="edgeStyle=orthogonalEdgeStyle;rounded=0;orthogonalLoop=1;jettySize=auto;html=1;exitX=0;exitY=0;exitDx=0;exitDy=0;entryX=1;entryY=0.5;entryDx=0;entryDy=0;" parent="1" source="CbjxjudxFoMtGtYBYWGe-35" target="DMuB1FqvteOAetmX3YVg-23" edge="1">
          <mxGeometry relative="1" as="geometry">
            <Array as="points">
              <mxPoint x="361" y="125" />
            </Array>
          </mxGeometry>
        </mxCell>
        <mxCell id="CbjxjudxFoMtGtYBYWGe-35" value="Bestellung" style="rounded=0;whiteSpace=wrap;html=1;" parent="1" vertex="1">
          <mxGeometry x="361.5" y="140" width="120" height="60" as="geometry" />
        </mxCell>
        <mxCell id="CbjxjudxFoMtGtYBYWGe-37" style="edgeStyle=orthogonalEdgeStyle;rounded=0;orthogonalLoop=1;jettySize=auto;html=1;exitX=1;exitY=0.5;exitDx=0;exitDy=0;entryX=0;entryY=0.25;entryDx=0;entryDy=0;endArrow=none;endFill=0;" parent="1" source="CbjxjudxFoMtGtYBYWGe-36" target="CbjxjudxFoMtGtYBYWGe-35" edge="1">
          <mxGeometry relative="1" as="geometry" />
        </mxCell>
        <mxCell id="CbjxjudxFoMtGtYBYWGe-36" value="&lt;u&gt;BestellNr&lt;/u&gt;" style="ellipse;whiteSpace=wrap;html=1;strokeColor=#3333FF;" parent="1" vertex="1">
          <mxGeometry x="205" y="161" width="90" height="50" as="geometry" />
        </mxCell>
        <mxCell id="CbjxjudxFoMtGtYBYWGe-39" style="edgeStyle=orthogonalEdgeStyle;rounded=0;orthogonalLoop=1;jettySize=auto;html=1;exitX=0.5;exitY=1;exitDx=0;exitDy=0;entryX=1;entryY=0.25;entryDx=0;entryDy=0;endArrow=none;endFill=0;" parent="1" source="CbjxjudxFoMtGtYBYWGe-38" target="CbjxjudxFoMtGtYBYWGe-35" edge="1">
          <mxGeometry relative="1" as="geometry" />
        </mxCell>
        <mxCell id="CbjxjudxFoMtGtYBYWGe-38" value="Rechnungsbetrag" style="ellipse;whiteSpace=wrap;html=1;strokeColor=#3333FF;" parent="1" vertex="1">
          <mxGeometry x="551.5" y="70" width="108.5" height="50" as="geometry" />
        </mxCell>
        <mxCell id="CbjxjudxFoMtGtYBYWGe-41" style="edgeStyle=orthogonalEdgeStyle;rounded=0;orthogonalLoop=1;jettySize=auto;html=1;exitX=0;exitY=0.5;exitDx=0;exitDy=0;entryX=1;entryY=0.5;entryDx=0;entryDy=0;endArrow=none;endFill=0;" parent="1" source="CbjxjudxFoMtGtYBYWGe-40" target="CbjxjudxFoMtGtYBYWGe-35" edge="1">
          <mxGeometry relative="1" as="geometry" />
        </mxCell>
        <mxCell id="CbjxjudxFoMtGtYBYWGe-40" value="Datum" style="ellipse;whiteSpace=wrap;html=1;strokeColor=#3333FF;" parent="1" vertex="1">
          <mxGeometry x="603.5" y="161" width="90" height="50" as="geometry" />
        </mxCell>
        <mxCell id="CbjxjudxFoMtGtYBYWGe-43" value="n" style="edgeStyle=orthogonalEdgeStyle;rounded=0;orthogonalLoop=1;jettySize=auto;html=1;endArrow=none;endFill=0;" parent="1" source="CbjxjudxFoMtGtYBYWGe-42" target="CbjxjudxFoMtGtYBYWGe-35" edge="1">
          <mxGeometry x="0.6667" y="10" relative="1" as="geometry">
            <mxPoint as="offset" />
          </mxGeometry>
        </mxCell>
        <mxCell id="CbjxjudxFoMtGtYBYWGe-44" value="1" style="edgeStyle=orthogonalEdgeStyle;rounded=0;orthogonalLoop=1;jettySize=auto;html=1;endArrow=none;endFill=0;" parent="1" source="CbjxjudxFoMtGtYBYWGe-42" target="CbjxjudxFoMtGtYBYWGe-16" edge="1">
          <mxGeometry x="0.5" y="-10" relative="1" as="geometry">
            <mxPoint as="offset" />
          </mxGeometry>
        </mxCell>
        <mxCell id="CbjxjudxFoMtGtYBYWGe-42" value="tÃ¤tigt" style="rhombus;whiteSpace=wrap;html=1;strokeColor=#FF8000;" parent="1" vertex="1">
          <mxGeometry x="381.5" width="80" height="80" as="geometry" />
        </mxCell>
        <mxCell id="DMuB1FqvteOAetmX3YVg-32" style="edgeStyle=orthogonalEdgeStyle;rounded=0;orthogonalLoop=1;jettySize=auto;html=1;exitX=0;exitY=0;exitDx=0;exitDy=0;" parent="1" source="DMuB1FqvteOAetmX3YVg-53" edge="1">
          <mxGeometry relative="1" as="geometry">
            <mxPoint x="390" y="850" as="targetPoint" />
            <Array as="points">
              <mxPoint x="390" y="710" />
            </Array>
          </mxGeometry>
        </mxCell>
        <mxCell id="DMuB1FqvteOAetmX3YVg-80" style="edgeStyle=orthogonalEdgeStyle;rounded=0;orthogonalLoop=1;jettySize=auto;html=1;exitX=0;exitY=1;exitDx=0;exitDy=0;entryX=0.5;entryY=0;entryDx=0;entryDy=0;" parent="1" source="CbjxjudxFoMtGtYBYWGe-45" target="DMuB1FqvteOAetmX3YVg-78" edge="1">
          <mxGeometry relative="1" as="geometry" />
        </mxCell>
        <mxCell id="CbjxjudxFoMtGtYBYWGe-45" value="Zutat" style="rounded=0;whiteSpace=wrap;html=1;" parent="1" vertex="1">
          <mxGeometry x="365" y="650" width="120" height="60" as="geometry" />
        </mxCell>
        <mxCell id="CbjxjudxFoMtGtYBYWGe-47" style="edgeStyle=orthogonalEdgeStyle;rounded=0;orthogonalLoop=1;jettySize=auto;html=1;exitX=1;exitY=0.5;exitDx=0;exitDy=0;entryX=0;entryY=0.25;entryDx=0;entryDy=0;endArrow=none;endFill=0;" parent="1" source="CbjxjudxFoMtGtYBYWGe-46" target="CbjxjudxFoMtGtYBYWGe-45" edge="1">
          <mxGeometry relative="1" as="geometry" />
        </mxCell>
        <mxCell id="CbjxjudxFoMtGtYBYWGe-46" value="&lt;u&gt;ZutatNR (PK)&lt;/u&gt;" style="ellipse;whiteSpace=wrap;html=1;strokeColor=#3333FF;" parent="1" vertex="1">
          <mxGeometry x="180" y="610" width="90" height="50" as="geometry" />
        </mxCell>
        <mxCell id="CbjxjudxFoMtGtYBYWGe-49" style="edgeStyle=orthogonalEdgeStyle;rounded=0;orthogonalLoop=1;jettySize=auto;html=1;exitX=1;exitY=0.5;exitDx=0;exitDy=0;entryX=0;entryY=0;entryDx=0;entryDy=0;endArrow=none;endFill=0;" parent="1" source="CbjxjudxFoMtGtYBYWGe-48" target="CbjxjudxFoMtGtYBYWGe-45" edge="1">
          <mxGeometry relative="1" as="geometry">
            <Array as="points">
              <mxPoint x="330" y="575" />
              <mxPoint x="330" y="650" />
            </Array>
          </mxGeometry>
        </mxCell>
        <mxCell id="CbjxjudxFoMtGtYBYWGe-48" value="Bezeichnung" style="ellipse;whiteSpace=wrap;html=1;strokeColor=#3333FF;" parent="1" vertex="1">
          <mxGeometry x="180" y="550" width="90" height="50" as="geometry" />
        </mxCell>
        <mxCell id="CbjxjudxFoMtGtYBYWGe-51" style="edgeStyle=orthogonalEdgeStyle;rounded=0;orthogonalLoop=1;jettySize=auto;html=1;exitX=0;exitY=0.5;exitDx=0;exitDy=0;entryX=1;entryY=0;entryDx=0;entryDy=0;endArrow=none;endFill=0;" parent="1" source="CbjxjudxFoMtGtYBYWGe-50" target="CbjxjudxFoMtGtYBYWGe-45" edge="1">
          <mxGeometry relative="1" as="geometry">
            <Array as="points">
              <mxPoint x="510" y="575" />
              <mxPoint x="510" y="650" />
            </Array>
          </mxGeometry>
        </mxCell>
        <mxCell id="CbjxjudxFoMtGtYBYWGe-50" value="Bestand" style="ellipse;whiteSpace=wrap;html=1;strokeColor=#3333FF;" parent="1" vertex="1">
          <mxGeometry x="570" y="550" width="90" height="50" as="geometry" />
        </mxCell>
        <mxCell id="CbjxjudxFoMtGtYBYWGe-53" style="edgeStyle=orthogonalEdgeStyle;rounded=0;orthogonalLoop=1;jettySize=auto;html=1;exitX=0;exitY=0.5;exitDx=0;exitDy=0;entryX=1;entryY=0.25;entryDx=0;entryDy=0;endArrow=none;endFill=0;" parent="1" source="CbjxjudxFoMtGtYBYWGe-52" target="CbjxjudxFoMtGtYBYWGe-45" edge="1">
          <mxGeometry relative="1" as="geometry" />
        </mxCell>
        <mxCell id="CbjxjudxFoMtGtYBYWGe-52" value="Nettopreis" style="ellipse;whiteSpace=wrap;html=1;strokeColor=#3333FF;" parent="1" vertex="1">
          <mxGeometry x="620" y="610" width="90" height="50" as="geometry" />
        </mxCell>
        <mxCell id="CbjxjudxFoMtGtYBYWGe-63" style="edgeStyle=orthogonalEdgeStyle;rounded=0;orthogonalLoop=1;jettySize=auto;html=1;exitX=0;exitY=0.5;exitDx=0;exitDy=0;entryX=1;entryY=0.75;entryDx=0;entryDy=0;endArrow=none;endFill=0;" parent="1" source="CbjxjudxFoMtGtYBYWGe-62" target="CbjxjudxFoMtGtYBYWGe-45" edge="1">
          <mxGeometry relative="1" as="geometry" />
        </mxCell>
        <mxCell id="CbjxjudxFoMtGtYBYWGe-62" value="Einheit" style="ellipse;whiteSpace=wrap;html=1;strokeColor=#3333FF;" parent="1" vertex="1">
          <mxGeometry x="580" y="740" width="90" height="50" as="geometry" />
        </mxCell>
        <mxCell id="CbjxjudxFoMtGtYBYWGe-67" style="edgeStyle=orthogonalEdgeStyle;rounded=0;orthogonalLoop=1;jettySize=auto;html=1;exitX=0;exitY=0.5;exitDx=0;exitDy=0;entryX=1;entryY=1;entryDx=0;entryDy=0;endArrow=none;endFill=0;" parent="1" source="CbjxjudxFoMtGtYBYWGe-64" target="CbjxjudxFoMtGtYBYWGe-45" edge="1">
          <mxGeometry relative="1" as="geometry">
            <Array as="points">
              <mxPoint x="510" y="825" />
              <mxPoint x="510" y="710" />
            </Array>
          </mxGeometry>
        </mxCell>
        <mxCell id="CbjxjudxFoMtGtYBYWGe-69" style="edgeStyle=orthogonalEdgeStyle;rounded=0;orthogonalLoop=1;jettySize=auto;html=1;exitX=0;exitY=0;exitDx=0;exitDy=0;" parent="1" source="CbjxjudxFoMtGtYBYWGe-64" edge="1">
          <mxGeometry relative="1" as="geometry">
            <mxPoint x="533" y="807" as="targetPoint" />
          </mxGeometry>
        </mxCell>
        <mxCell id="CbjxjudxFoMtGtYBYWGe-64" value="Kohlenhydrate pro 100g" style="ellipse;whiteSpace=wrap;html=1;strokeColor=#3333FF;" parent="1" vertex="1">
          <mxGeometry x="520" y="800" width="90" height="50" as="geometry" />
        </mxCell>
        <mxCell id="CbjxjudxFoMtGtYBYWGe-71" style="edgeStyle=orthogonalEdgeStyle;rounded=0;orthogonalLoop=1;jettySize=auto;html=1;exitX=0.5;exitY=0;exitDx=0;exitDy=0;entryX=0.75;entryY=1;entryDx=0;entryDy=0;endArrow=none;endFill=0;" parent="1" source="CbjxjudxFoMtGtYBYWGe-65" target="CbjxjudxFoMtGtYBYWGe-45" edge="1">
          <mxGeometry relative="1" as="geometry" />
        </mxCell>
        <mxCell id="CbjxjudxFoMtGtYBYWGe-65" value="Kalorien pro 100g" style="ellipse;whiteSpace=wrap;html=1;strokeColor=#3333FF;" parent="1" vertex="1">
          <mxGeometry x="410" y="790" width="90" height="50" as="geometry" />
        </mxCell>
        <mxCell id="JVnjB8fws88ZDnqH3pCm-1" style="edgeStyle=orthogonalEdgeStyle;rounded=0;orthogonalLoop=1;jettySize=auto;html=1;exitX=0;exitY=0.5;exitDx=0;exitDy=0;entryX=1;entryY=0.5;entryDx=0;entryDy=0;" parent="1" source="CbjxjudxFoMtGtYBYWGe-66" target="CbjxjudxFoMtGtYBYWGe-45" edge="1">
          <mxGeometry relative="1" as="geometry" />
        </mxCell>
        <mxCell id="CbjxjudxFoMtGtYBYWGe-66" value="Fett pro 100g" style="ellipse;whiteSpace=wrap;html=1;strokeColor=#3333FF;" parent="1" vertex="1">
          <mxGeometry x="600" y="670" width="100" height="50" as="geometry" />
        </mxCell>
        <mxCell id="CbjxjudxFoMtGtYBYWGe-77" value="n" style="edgeStyle=orthogonalEdgeStyle;rounded=0;orthogonalLoop=1;jettySize=auto;html=1;entryX=0;entryY=0.5;entryDx=0;entryDy=0;endArrow=none;endFill=0;" parent="1" source="CbjxjudxFoMtGtYBYWGe-76" target="CbjxjudxFoMtGtYBYWGe-45" edge="1">
          <mxGeometry x="0.931" y="-10" relative="1" as="geometry">
            <mxPoint as="offset" />
          </mxGeometry>
        </mxCell>
        <mxCell id="CbjxjudxFoMtGtYBYWGe-79" value="1" style="edgeStyle=orthogonalEdgeStyle;rounded=0;orthogonalLoop=1;jettySize=auto;html=1;exitX=0;exitY=0.5;exitDx=0;exitDy=0;entryX=1;entryY=0.5;entryDx=0;entryDy=0;endArrow=none;endFill=0;" parent="1" source="CbjxjudxFoMtGtYBYWGe-76" target="CbjxjudxFoMtGtYBYWGe-78" edge="1">
          <mxGeometry x="0.9231" y="10" relative="1" as="geometry">
            <mxPoint as="offset" />
          </mxGeometry>
        </mxCell>
        <mxCell id="CbjxjudxFoMtGtYBYWGe-76" value="liefert" style="rhombus;whiteSpace=wrap;html=1;strokeColor=#FF8000;" parent="1" vertex="1">
          <mxGeometry x="-10" y="640" width="80" height="80" as="geometry" />
        </mxCell>
        <mxCell id="CbjxjudxFoMtGtYBYWGe-78" value="Lieferant" style="rounded=0;whiteSpace=wrap;html=1;" parent="1" vertex="1">
          <mxGeometry x="-390" y="650" width="120" height="60" as="geometry" />
        </mxCell>
        <mxCell id="CbjxjudxFoMtGtYBYWGe-81" style="edgeStyle=orthogonalEdgeStyle;rounded=0;orthogonalLoop=1;jettySize=auto;html=1;exitX=0.5;exitY=1;exitDx=0;exitDy=0;entryX=0.5;entryY=0;entryDx=0;entryDy=0;endArrow=none;endFill=0;" parent="1" source="CbjxjudxFoMtGtYBYWGe-80" target="CbjxjudxFoMtGtYBYWGe-78" edge="1">
          <mxGeometry relative="1" as="geometry" />
        </mxCell>
        <mxCell id="CbjxjudxFoMtGtYBYWGe-80" value="&lt;u&gt;LiefNR (PK)&lt;/u&gt;" style="ellipse;whiteSpace=wrap;html=1;strokeColor=#3333FF;" parent="1" vertex="1">
          <mxGeometry x="-375" y="510" width="90" height="50" as="geometry" />
        </mxCell>
        <mxCell id="CbjxjudxFoMtGtYBYWGe-83" style="edgeStyle=orthogonalEdgeStyle;rounded=0;orthogonalLoop=1;jettySize=auto;html=1;exitX=0;exitY=0.5;exitDx=0;exitDy=0;entryX=0.75;entryY=0;entryDx=0;entryDy=0;endArrow=none;endFill=0;" parent="1" source="CbjxjudxFoMtGtYBYWGe-82" target="CbjxjudxFoMtGtYBYWGe-78" edge="1">
          <mxGeometry relative="1" as="geometry" />
        </mxCell>
        <mxCell id="CbjxjudxFoMtGtYBYWGe-82" value="Stadt" style="ellipse;whiteSpace=wrap;html=1;strokeColor=#3333FF;" parent="1" vertex="1">
          <mxGeometry x="-260" y="540" width="90" height="50" as="geometry" />
        </mxCell>
        <mxCell id="CbjxjudxFoMtGtYBYWGe-85" style="edgeStyle=orthogonalEdgeStyle;rounded=0;orthogonalLoop=1;jettySize=auto;html=1;exitX=0;exitY=0.5;exitDx=0;exitDy=0;entryX=1;entryY=0;entryDx=0;entryDy=0;endArrow=none;endFill=0;" parent="1" source="CbjxjudxFoMtGtYBYWGe-84" target="CbjxjudxFoMtGtYBYWGe-78" edge="1">
          <mxGeometry relative="1" as="geometry" />
        </mxCell>
        <mxCell id="CbjxjudxFoMtGtYBYWGe-84" value="Strasse" style="ellipse;whiteSpace=wrap;html=1;strokeColor=#3333FF;" parent="1" vertex="1">
          <mxGeometry x="-220" y="600" width="90" height="50" as="geometry" />
        </mxCell>
        <mxCell id="CbjxjudxFoMtGtYBYWGe-87" style="edgeStyle=orthogonalEdgeStyle;rounded=0;orthogonalLoop=1;jettySize=auto;html=1;exitX=0;exitY=0.5;exitDx=0;exitDy=0;entryX=1;entryY=1;entryDx=0;entryDy=0;endArrow=none;endFill=0;" parent="1" source="CbjxjudxFoMtGtYBYWGe-86" target="CbjxjudxFoMtGtYBYWGe-78" edge="1">
          <mxGeometry relative="1" as="geometry" />
        </mxCell>
        <mxCell id="CbjxjudxFoMtGtYBYWGe-86" value="HausNr" style="ellipse;whiteSpace=wrap;html=1;strokeColor=#3333FF;" parent="1" vertex="1">
          <mxGeometry x="-220" y="720" width="90" height="50" as="geometry" />
        </mxCell>
        <mxCell id="CbjxjudxFoMtGtYBYWGe-91" style="edgeStyle=orthogonalEdgeStyle;rounded=0;orthogonalLoop=1;jettySize=auto;html=1;exitX=0;exitY=0.5;exitDx=0;exitDy=0;entryX=0.75;entryY=1;entryDx=0;entryDy=0;endArrow=none;endFill=0;" parent="1" source="CbjxjudxFoMtGtYBYWGe-88" target="CbjxjudxFoMtGtYBYWGe-78" edge="1">
          <mxGeometry relative="1" as="geometry" />
        </mxCell>
        <mxCell id="CbjxjudxFoMtGtYBYWGe-88" value="PLZ" style="ellipse;whiteSpace=wrap;html=1;strokeColor=#3333FF;" parent="1" vertex="1">
          <mxGeometry x="-260" y="790" width="90" height="50" as="geometry" />
        </mxCell>
        <mxCell id="CbjxjudxFoMtGtYBYWGe-92" style="edgeStyle=orthogonalEdgeStyle;rounded=0;orthogonalLoop=1;jettySize=auto;html=1;exitX=0.5;exitY=0;exitDx=0;exitDy=0;entryX=0.5;entryY=1;entryDx=0;entryDy=0;endArrow=none;endFill=0;" parent="1" source="CbjxjudxFoMtGtYBYWGe-90" target="CbjxjudxFoMtGtYBYWGe-78" edge="1">
          <mxGeometry relative="1" as="geometry" />
        </mxCell>
        <mxCell id="CbjxjudxFoMtGtYBYWGe-90" value="Lieferantenname" style="ellipse;whiteSpace=wrap;html=1;strokeColor=#3333FF;" parent="1" vertex="1">
          <mxGeometry x="-375" y="820" width="90" height="50" as="geometry" />
        </mxCell>
        <mxCell id="DMuB1FqvteOAetmX3YVg-13" style="rounded=0;orthogonalLoop=1;jettySize=auto;html=1;" parent="1" source="DMuB1FqvteOAetmX3YVg-1" target="DMuB1FqvteOAetmX3YVg-4" edge="1">
          <mxGeometry relative="1" as="geometry" />
        </mxCell>
        <mxCell id="DMuB1FqvteOAetmX3YVg-14" style="edgeStyle=orthogonalEdgeStyle;rounded=0;orthogonalLoop=1;jettySize=auto;html=1;entryX=0.5;entryY=1;entryDx=0;entryDy=0;" parent="1" source="DMuB1FqvteOAetmX3YVg-1" target="DMuB1FqvteOAetmX3YVg-5" edge="1">
          <mxGeometry relative="1" as="geometry" />
        </mxCell>
        <mxCell id="DMuB1FqvteOAetmX3YVg-22" style="edgeStyle=orthogonalEdgeStyle;rounded=0;orthogonalLoop=1;jettySize=auto;html=1;exitX=0;exitY=0.75;exitDx=0;exitDy=0;entryX=1;entryY=0.5;entryDx=0;entryDy=0;" parent="1" source="DMuB1FqvteOAetmX3YVg-1" target="DMuB1FqvteOAetmX3YVg-2" edge="1">
          <mxGeometry relative="1" as="geometry" />
        </mxCell>
        <mxCell id="DMuB1FqvteOAetmX3YVg-26" style="edgeStyle=orthogonalEdgeStyle;rounded=0;orthogonalLoop=1;jettySize=auto;html=1;exitX=0.5;exitY=1;exitDx=0;exitDy=0;entryX=0.5;entryY=0;entryDx=0;entryDy=0;" parent="1" source="DMuB1FqvteOAetmX3YVg-1" target="DMuB1FqvteOAetmX3YVg-25" edge="1">
          <mxGeometry relative="1" as="geometry" />
        </mxCell>
        <mxCell id="DMuB1FqvteOAetmX3YVg-1" value="Bestellung_Zutat(en)" style="rounded=0;whiteSpace=wrap;html=1;" parent="1" vertex="1">
          <mxGeometry x="365" y="370" width="120" height="60" as="geometry" />
        </mxCell>
        <mxCell id="DMuB1FqvteOAetmX3YVg-2" value="&lt;u&gt;&lt;font color=&quot;#0000cc&quot;&gt;BestellNR (FK)&lt;/font&gt;&lt;br&gt;&lt;/u&gt;" style="ellipse;whiteSpace=wrap;html=1;strokeColor=#3333FF;" parent="1" vertex="1">
          <mxGeometry x="215" y="390" width="90" height="50" as="geometry" />
        </mxCell>
        <mxCell id="DMuB1FqvteOAetmX3YVg-4" value="&lt;u&gt;&lt;font color=&quot;#0000cc&quot;&gt;ZutatenNR (FK)&lt;/font&gt;&lt;/u&gt;" style="ellipse;whiteSpace=wrap;html=1;strokeColor=#3333FF;" parent="1" vertex="1">
          <mxGeometry x="240" y="320" width="90" height="50" as="geometry" />
        </mxCell>
        <mxCell id="DMuB1FqvteOAetmX3YVg-5" value="&lt;font color=&quot;#0000cc&quot;&gt;&lt;u&gt;MengeNR (FK)&lt;/u&gt;&lt;br&gt;&lt;/font&gt;" style="ellipse;whiteSpace=wrap;html=1;strokeColor=#3333FF;" parent="1" vertex="1">
          <mxGeometry x="526.5" y="330" width="90" height="50" as="geometry" />
        </mxCell>
        <mxCell id="DMuB1FqvteOAetmX3YVg-20" style="edgeStyle=orthogonalEdgeStyle;rounded=0;orthogonalLoop=1;jettySize=auto;html=1;exitX=0.5;exitY=1;exitDx=0;exitDy=0;entryX=0.5;entryY=0;entryDx=0;entryDy=0;" parent="1" source="DMuB1FqvteOAetmX3YVg-16" target="DMuB1FqvteOAetmX3YVg-1" edge="1">
          <mxGeometry relative="1" as="geometry">
            <Array as="points">
              <mxPoint x="421" y="370" />
            </Array>
          </mxGeometry>
        </mxCell>
        <mxCell id="DMuB1FqvteOAetmX3YVg-16" value="enthÃ¤lt" style="rhombus;whiteSpace=wrap;html=1;strokeColor=#FF8000;" parent="1" vertex="1">
          <mxGeometry x="381.5" y="250" width="80" height="80" as="geometry" />
        </mxCell>
        <mxCell id="DMuB1FqvteOAetmX3YVg-23" value="KundenNR" style="ellipse;whiteSpace=wrap;html=1;strokeColor=#3333FF;" parent="1" vertex="1">
          <mxGeometry x="211.5" y="100" width="90" height="50" as="geometry" />
        </mxCell>
        <mxCell id="DMuB1FqvteOAetmX3YVg-28" style="edgeStyle=orthogonalEdgeStyle;rounded=0;orthogonalLoop=1;jettySize=auto;html=1;exitX=0.5;exitY=1;exitDx=0;exitDy=0;entryX=0.5;entryY=0;entryDx=0;entryDy=0;" parent="1" source="DMuB1FqvteOAetmX3YVg-25" target="CbjxjudxFoMtGtYBYWGe-45" edge="1">
          <mxGeometry relative="1" as="geometry" />
        </mxCell>
        <mxCell id="DMuB1FqvteOAetmX3YVg-25" value="setzt sich zusammen aus" style="rhombus;whiteSpace=wrap;html=1;strokeColor=#FF8000;" parent="1" vertex="1">
          <mxGeometry x="385" y="495" width="80" height="85" as="geometry" />
        </mxCell>
        <mxCell id="DMuB1FqvteOAetmX3YVg-37" style="edgeStyle=orthogonalEdgeStyle;rounded=0;orthogonalLoop=1;jettySize=auto;html=1;exitX=0.5;exitY=1;exitDx=0;exitDy=0;" parent="1" source="DMuB1FqvteOAetmX3YVg-33" target="DMuB1FqvteOAetmX3YVg-36" edge="1">
          <mxGeometry relative="1" as="geometry" />
        </mxCell>
        <mxCell id="DMuB1FqvteOAetmX3YVg-33" value="enthÃ¤lt" style="rhombus;whiteSpace=wrap;html=1;strokeColor=#FF8000;" parent="1" vertex="1">
          <mxGeometry x="350" y="850" width="80" height="80" as="geometry" />
        </mxCell>
        <mxCell id="DMuB1FqvteOAetmX3YVg-39" style="edgeStyle=orthogonalEdgeStyle;rounded=0;orthogonalLoop=1;jettySize=auto;html=1;exitX=1;exitY=0.5;exitDx=0;exitDy=0;entryX=0;entryY=0.5;entryDx=0;entryDy=0;" parent="1" source="DMuB1FqvteOAetmX3YVg-36" target="DMuB1FqvteOAetmX3YVg-38" edge="1">
          <mxGeometry relative="1" as="geometry" />
        </mxCell>
        <mxCell id="DMuB1FqvteOAetmX3YVg-41" style="edgeStyle=orthogonalEdgeStyle;rounded=0;orthogonalLoop=1;jettySize=auto;html=1;exitX=0.75;exitY=1;exitDx=0;exitDy=0;entryX=0;entryY=0.5;entryDx=0;entryDy=0;" parent="1" source="DMuB1FqvteOAetmX3YVg-36" target="DMuB1FqvteOAetmX3YVg-40" edge="1">
          <mxGeometry relative="1" as="geometry" />
        </mxCell>
        <mxCell id="DMuB1FqvteOAetmX3YVg-44" style="edgeStyle=orthogonalEdgeStyle;rounded=0;orthogonalLoop=1;jettySize=auto;html=1;exitX=0;exitY=0.5;exitDx=0;exitDy=0;entryX=1;entryY=0.5;entryDx=0;entryDy=0;" parent="1" source="DMuB1FqvteOAetmX3YVg-36" target="DMuB1FqvteOAetmX3YVg-42" edge="1">
          <mxGeometry relative="1" as="geometry" />
        </mxCell>
        <mxCell id="DMuB1FqvteOAetmX3YVg-46" style="edgeStyle=orthogonalEdgeStyle;rounded=0;orthogonalLoop=1;jettySize=auto;html=1;exitX=0.5;exitY=1;exitDx=0;exitDy=0;entryX=0.5;entryY=0;entryDx=0;entryDy=0;" parent="1" source="DMuB1FqvteOAetmX3YVg-36" target="DMuB1FqvteOAetmX3YVg-45" edge="1">
          <mxGeometry relative="1" as="geometry" />
        </mxCell>
        <mxCell id="DMuB1FqvteOAetmX3YVg-36" value="Rezeptzutat" style="rounded=0;whiteSpace=wrap;html=1;" parent="1" vertex="1">
          <mxGeometry x="330" y="1010" width="120" height="60" as="geometry" />
        </mxCell>
        <mxCell id="DMuB1FqvteOAetmX3YVg-38" value="&lt;u&gt;&lt;font color=&quot;#0000cc&quot;&gt;RezeptNR (FK)&lt;/font&gt;&lt;/u&gt;" style="ellipse;whiteSpace=wrap;html=1;strokeColor=#3333FF;" parent="1" vertex="1">
          <mxGeometry x="521.5" y="1015" width="90" height="50" as="geometry" />
        </mxCell>
        <mxCell id="DMuB1FqvteOAetmX3YVg-40" value="&lt;u&gt;&lt;font color=&quot;#0000cc&quot;&gt;ZutatenNR (FK)&lt;/font&gt;&lt;/u&gt;" style="ellipse;whiteSpace=wrap;html=1;strokeColor=#3333FF;" parent="1" vertex="1">
          <mxGeometry x="491" y="1070" width="90" height="50" as="geometry" />
        </mxCell>
        <mxCell id="DMuB1FqvteOAetmX3YVg-42" value="Menge" style="ellipse;whiteSpace=wrap;html=1;strokeColor=#3333FF;" parent="1" vertex="1">
          <mxGeometry x="180" y="1015" width="90" height="50" as="geometry" />
        </mxCell>
        <mxCell id="DMuB1FqvteOAetmX3YVg-58" style="edgeStyle=orthogonalEdgeStyle;rounded=0;orthogonalLoop=1;jettySize=auto;html=1;exitX=0.5;exitY=1;exitDx=0;exitDy=0;entryX=0.5;entryY=0;entryDx=0;entryDy=0;" parent="1" source="DMuB1FqvteOAetmX3YVg-45" target="DMuB1FqvteOAetmX3YVg-57" edge="1">
          <mxGeometry relative="1" as="geometry" />
        </mxCell>
        <mxCell id="DMuB1FqvteOAetmX3YVg-45" value="enthÃ¤lt" style="rhombus;whiteSpace=wrap;html=1;strokeColor=#FF8000;" parent="1" vertex="1">
          <mxGeometry x="350" y="1170" width="80" height="80" as="geometry" />
        </mxCell>
        <mxCell id="DMuB1FqvteOAetmX3YVg-47" value="1" style="text;html=1;align=center;verticalAlign=middle;resizable=0;points=[];autosize=1;strokeColor=none;fillColor=none;" parent="1" vertex="1">
          <mxGeometry x="415" y="198" width="30" height="30" as="geometry" />
        </mxCell>
        <mxCell id="DMuB1FqvteOAetmX3YVg-48" value="n" style="text;html=1;align=center;verticalAlign=middle;whiteSpace=wrap;rounded=0;" parent="1" vertex="1">
          <mxGeometry x="410" y="340" width="60" height="30" as="geometry" />
        </mxCell>
        <mxCell id="DMuB1FqvteOAetmX3YVg-51" value="1" style="text;html=1;align=center;verticalAlign=middle;whiteSpace=wrap;rounded=0;" parent="1" vertex="1">
          <mxGeometry x="415" y="440" width="60" height="30" as="geometry" />
        </mxCell>
        <mxCell id="DMuB1FqvteOAetmX3YVg-52" value="n" style="text;html=1;align=center;verticalAlign=middle;whiteSpace=wrap;rounded=0;" parent="1" vertex="1">
          <mxGeometry x="415" y="620" width="60" height="30" as="geometry" />
        </mxCell>
        <mxCell id="DMuB1FqvteOAetmX3YVg-53" value="n" style="text;html=1;align=center;verticalAlign=middle;whiteSpace=wrap;rounded=0;" parent="1" vertex="1">
          <mxGeometry x="381.5" y="710" width="60" height="30" as="geometry" />
        </mxCell>
        <mxCell id="DMuB1FqvteOAetmX3YVg-54" value="1" style="text;html=1;align=center;verticalAlign=middle;whiteSpace=wrap;rounded=0;" parent="1" vertex="1">
          <mxGeometry x="380" y="980" width="60" height="30" as="geometry" />
        </mxCell>
        <mxCell id="DMuB1FqvteOAetmX3YVg-56" value="n" style="text;html=1;align=center;verticalAlign=middle;whiteSpace=wrap;rounded=0;" parent="1" vertex="1">
          <mxGeometry x="331.5" y="1070" width="60" height="30" as="geometry" />
        </mxCell>
        <mxCell id="DMuB1FqvteOAetmX3YVg-65" style="edgeStyle=orthogonalEdgeStyle;rounded=0;orthogonalLoop=1;jettySize=auto;html=1;exitX=0;exitY=0.25;exitDx=0;exitDy=0;entryX=1;entryY=0.5;entryDx=0;entryDy=0;" parent="1" source="DMuB1FqvteOAetmX3YVg-57" target="DMuB1FqvteOAetmX3YVg-62" edge="1">
          <mxGeometry relative="1" as="geometry" />
        </mxCell>
        <mxCell id="DMuB1FqvteOAetmX3YVg-66" style="edgeStyle=orthogonalEdgeStyle;rounded=0;orthogonalLoop=1;jettySize=auto;html=1;exitX=1;exitY=0.25;exitDx=0;exitDy=0;entryX=0;entryY=0.5;entryDx=0;entryDy=0;" parent="1" source="DMuB1FqvteOAetmX3YVg-57" target="DMuB1FqvteOAetmX3YVg-63" edge="1">
          <mxGeometry relative="1" as="geometry" />
        </mxCell>
        <mxCell id="DMuB1FqvteOAetmX3YVg-67" style="edgeStyle=orthogonalEdgeStyle;rounded=0;orthogonalLoop=1;jettySize=auto;html=1;exitX=1;exitY=0.75;exitDx=0;exitDy=0;entryX=0;entryY=0.5;entryDx=0;entryDy=0;" parent="1" source="DMuB1FqvteOAetmX3YVg-57" target="DMuB1FqvteOAetmX3YVg-64" edge="1">
          <mxGeometry relative="1" as="geometry" />
        </mxCell>
        <mxCell id="DMuB1FqvteOAetmX3YVg-69" style="edgeStyle=orthogonalEdgeStyle;rounded=0;orthogonalLoop=1;jettySize=auto;html=1;exitX=0.5;exitY=1;exitDx=0;exitDy=0;entryX=0.5;entryY=0;entryDx=0;entryDy=0;" parent="1" source="DMuB1FqvteOAetmX3YVg-57" target="DMuB1FqvteOAetmX3YVg-68" edge="1">
          <mxGeometry relative="1" as="geometry" />
        </mxCell>
        <mxCell id="DMuB1FqvteOAetmX3YVg-57" value="Rezept" style="rounded=0;whiteSpace=wrap;html=1;" parent="1" vertex="1">
          <mxGeometry x="330" y="1350" width="120" height="60" as="geometry" />
        </mxCell>
        <mxCell id="DMuB1FqvteOAetmX3YVg-59" value="1" style="text;html=1;align=center;verticalAlign=middle;whiteSpace=wrap;rounded=0;" parent="1" vertex="1">
          <mxGeometry x="331.5" y="1320" width="60" height="30" as="geometry" />
        </mxCell>
        <mxCell id="DMuB1FqvteOAetmX3YVg-62" value="&lt;u&gt;RezeptNR (PK)&lt;/u&gt;" style="ellipse;whiteSpace=wrap;html=1;strokeColor=#3333FF;" parent="1" vertex="1">
          <mxGeometry x="205" y="1330" width="90" height="50" as="geometry" />
        </mxCell>
        <mxCell id="DMuB1FqvteOAetmX3YVg-63" value="Rezeptname" style="ellipse;whiteSpace=wrap;html=1;strokeColor=#3333FF;" parent="1" vertex="1">
          <mxGeometry x="490" y="1340" width="90" height="50" as="geometry" />
        </mxCell>
        <mxCell id="DMuB1FqvteOAetmX3YVg-64" value="Beschreibung" style="ellipse;whiteSpace=wrap;html=1;strokeColor=#3333FF;" parent="1" vertex="1">
          <mxGeometry x="501.5" y="1410" width="90" height="50" as="geometry" />
        </mxCell>
        <mxCell id="DMuB1FqvteOAetmX3YVg-72" style="edgeStyle=orthogonalEdgeStyle;rounded=0;orthogonalLoop=1;jettySize=auto;html=1;exitX=0.5;exitY=1;exitDx=0;exitDy=0;entryX=0.5;entryY=0;entryDx=0;entryDy=0;" parent="1" source="DMuB1FqvteOAetmX3YVg-68" target="DMuB1FqvteOAetmX3YVg-71" edge="1">
          <mxGeometry relative="1" as="geometry" />
        </mxCell>
        <mxCell id="DMuB1FqvteOAetmX3YVg-68" value="hat" style="rhombus;whiteSpace=wrap;html=1;strokeColor=#FF8000;" parent="1" vertex="1">
          <mxGeometry x="350" y="1490" width="80" height="80" as="geometry" />
        </mxCell>
        <mxCell id="XenG6Du46tDOmNIxOZbn-7" style="edgeStyle=orthogonalEdgeStyle;rounded=0;orthogonalLoop=1;jettySize=auto;html=1;entryX=0;entryY=0.5;entryDx=0;entryDy=0;" parent="1" source="DMuB1FqvteOAetmX3YVg-70" target="XenG6Du46tDOmNIxOZbn-5" edge="1">
          <mxGeometry relative="1" as="geometry">
            <Array as="points">
              <mxPoint x="480" y="2030" />
              <mxPoint x="480" y="1995" />
            </Array>
          </mxGeometry>
        </mxCell>
        <mxCell id="XenG6Du46tDOmNIxOZbn-8" style="edgeStyle=orthogonalEdgeStyle;rounded=0;orthogonalLoop=1;jettySize=auto;html=1;entryX=0;entryY=0.5;entryDx=0;entryDy=0;" parent="1" source="DMuB1FqvteOAetmX3YVg-70" target="XenG6Du46tDOmNIxOZbn-6" edge="1">
          <mxGeometry relative="1" as="geometry" />
        </mxCell>
        <mxCell id="DMuB1FqvteOAetmX3YVg-70" value="ErnÃ¤hrungskategorien" style="rounded=0;whiteSpace=wrap;html=1;" parent="1" vertex="1">
          <mxGeometry x="330" y="2010" width="120" height="60" as="geometry" />
        </mxCell>
        <mxCell id="DMuB1FqvteOAetmX3YVg-74" style="edgeStyle=orthogonalEdgeStyle;rounded=0;orthogonalLoop=1;jettySize=auto;html=1;exitX=0.5;exitY=1;exitDx=0;exitDy=0;entryX=0.5;entryY=0;entryDx=0;entryDy=0;" parent="1" source="DMuB1FqvteOAetmX3YVg-71" target="DMuB1FqvteOAetmX3YVg-73" edge="1">
          <mxGeometry relative="1" as="geometry" />
        </mxCell>
        <mxCell id="XenG6Du46tDOmNIxOZbn-3" style="edgeStyle=orthogonalEdgeStyle;rounded=0;orthogonalLoop=1;jettySize=auto;html=1;entryX=0;entryY=0.5;entryDx=0;entryDy=0;" parent="1" source="DMuB1FqvteOAetmX3YVg-71" target="XenG6Du46tDOmNIxOZbn-1" edge="1">
          <mxGeometry relative="1" as="geometry">
            <Array as="points">
              <mxPoint x="480" y="1655" />
              <mxPoint x="480" y="1655" />
            </Array>
          </mxGeometry>
        </mxCell>
        <mxCell id="XenG6Du46tDOmNIxOZbn-4" style="edgeStyle=orthogonalEdgeStyle;rounded=0;orthogonalLoop=1;jettySize=auto;html=1;entryX=0;entryY=0.5;entryDx=0;entryDy=0;" parent="1" source="DMuB1FqvteOAetmX3YVg-71" target="XenG6Du46tDOmNIxOZbn-2" edge="1">
          <mxGeometry relative="1" as="geometry">
            <Array as="points">
              <mxPoint x="470" y="1690" />
              <mxPoint x="470" y="1715" />
            </Array>
          </mxGeometry>
        </mxCell>
        <mxCell id="DMuB1FqvteOAetmX3YVg-71" value="RezeptInfo" style="rounded=0;whiteSpace=wrap;html=1;" parent="1" vertex="1">
          <mxGeometry x="330" y="1640" width="120" height="60" as="geometry" />
        </mxCell>
        <mxCell id="DMuB1FqvteOAetmX3YVg-75" style="edgeStyle=orthogonalEdgeStyle;rounded=0;orthogonalLoop=1;jettySize=auto;html=1;exitX=0.5;exitY=1;exitDx=0;exitDy=0;entryX=0.5;entryY=0;entryDx=0;entryDy=0;" parent="1" source="DMuB1FqvteOAetmX3YVg-73" target="DMuB1FqvteOAetmX3YVg-70" edge="1">
          <mxGeometry relative="1" as="geometry" />
        </mxCell>
        <mxCell id="DMuB1FqvteOAetmX3YVg-73" value="enthalten" style="rhombus;whiteSpace=wrap;html=1;strokeColor=#FF8000;" parent="1" vertex="1">
          <mxGeometry x="350" y="1810" width="80" height="80" as="geometry" />
        </mxCell>
        <mxCell id="DMuB1FqvteOAetmX3YVg-82" style="edgeStyle=orthogonalEdgeStyle;rounded=0;orthogonalLoop=1;jettySize=auto;html=1;exitX=0.5;exitY=1;exitDx=0;exitDy=0;entryX=0.5;entryY=0;entryDx=0;entryDy=0;" parent="1" source="DMuB1FqvteOAetmX3YVg-76" target="DMuB1FqvteOAetmX3YVg-79" edge="1">
          <mxGeometry relative="1" as="geometry" />
        </mxCell>
        <mxCell id="XenG6Du46tDOmNIxOZbn-22" style="edgeStyle=orthogonalEdgeStyle;rounded=0;orthogonalLoop=1;jettySize=auto;html=1;entryX=1;entryY=0.5;entryDx=0;entryDy=0;" parent="1" source="DMuB1FqvteOAetmX3YVg-76" target="XenG6Du46tDOmNIxOZbn-20" edge="1">
          <mxGeometry relative="1" as="geometry" />
        </mxCell>
        <mxCell id="XenG6Du46tDOmNIxOZbn-23" style="edgeStyle=orthogonalEdgeStyle;rounded=0;orthogonalLoop=1;jettySize=auto;html=1;entryX=1;entryY=0.5;entryDx=0;entryDy=0;" parent="1" source="DMuB1FqvteOAetmX3YVg-76" target="XenG6Du46tDOmNIxOZbn-21" edge="1">
          <mxGeometry relative="1" as="geometry">
            <Array as="points">
              <mxPoint x="-247" y="1050" />
              <mxPoint x="-247" y="1075" />
            </Array>
          </mxGeometry>
        </mxCell>
        <mxCell id="DMuB1FqvteOAetmX3YVg-76" value="ZutatAllergene" style="rounded=0;whiteSpace=wrap;html=1;" parent="1" vertex="1">
          <mxGeometry x="-210" y="1005" width="120" height="60" as="geometry" />
        </mxCell>
        <mxCell id="DMuB1FqvteOAetmX3YVg-81" style="edgeStyle=orthogonalEdgeStyle;rounded=0;orthogonalLoop=1;jettySize=auto;html=1;exitX=0.5;exitY=1;exitDx=0;exitDy=0;entryX=0.5;entryY=0;entryDx=0;entryDy=0;" parent="1" source="DMuB1FqvteOAetmX3YVg-78" target="DMuB1FqvteOAetmX3YVg-76" edge="1">
          <mxGeometry relative="1" as="geometry" />
        </mxCell>
        <mxCell id="DMuB1FqvteOAetmX3YVg-78" value="enthÃ¤lt" style="rhombus;whiteSpace=wrap;html=1;strokeColor=#FF8000;" parent="1" vertex="1">
          <mxGeometry x="60" y="820" width="80" height="80" as="geometry" />
        </mxCell>
        <mxCell id="DMuB1FqvteOAetmX3YVg-84" style="edgeStyle=orthogonalEdgeStyle;rounded=0;orthogonalLoop=1;jettySize=auto;html=1;exitX=0.5;exitY=1;exitDx=0;exitDy=0;entryX=0.5;entryY=0;entryDx=0;entryDy=0;" parent="1" source="DMuB1FqvteOAetmX3YVg-79" target="DMuB1FqvteOAetmX3YVg-83" edge="1">
          <mxGeometry relative="1" as="geometry" />
        </mxCell>
        <mxCell id="DMuB1FqvteOAetmX3YVg-79" value="enthÃ¤lt" style="rhombus;whiteSpace=wrap;html=1;strokeColor=#FF8000;" parent="1" vertex="1">
          <mxGeometry x="-190" y="1180" width="80" height="80" as="geometry" />
        </mxCell>
        <mxCell id="XenG6Du46tDOmNIxOZbn-18" style="edgeStyle=orthogonalEdgeStyle;rounded=0;orthogonalLoop=1;jettySize=auto;html=1;entryX=1;entryY=0.5;entryDx=0;entryDy=0;" parent="1" source="DMuB1FqvteOAetmX3YVg-83" target="XenG6Du46tDOmNIxOZbn-16" edge="1">
          <mxGeometry relative="1" as="geometry">
            <mxPoint x="-270" y="1410" as="targetPoint" />
          </mxGeometry>
        </mxCell>
        <mxCell id="XenG6Du46tDOmNIxOZbn-19" style="edgeStyle=orthogonalEdgeStyle;rounded=0;orthogonalLoop=1;jettySize=auto;html=1;entryX=1;entryY=0.5;entryDx=0;entryDy=0;" parent="1" source="DMuB1FqvteOAetmX3YVg-83" target="XenG6Du46tDOmNIxOZbn-17" edge="1">
          <mxGeometry relative="1" as="geometry">
            <Array as="points">
              <mxPoint x="-247" y="1440" />
              <mxPoint x="-247" y="1455" />
            </Array>
          </mxGeometry>
        </mxCell>
        <mxCell id="DMuB1FqvteOAetmX3YVg-83" value="Allergene" style="rounded=0;whiteSpace=wrap;html=1;" parent="1" vertex="1">
          <mxGeometry x="-210" y="1390" width="120" height="60" as="geometry" />
        </mxCell>
        <mxCell id="XenG6Du46tDOmNIxOZbn-1" value="&lt;font color=&quot;#0000cc&quot;&gt;&lt;u&gt;RezeptNR (FK)&lt;/u&gt;&lt;/font&gt;" style="ellipse;whiteSpace=wrap;html=1;strokeColor=#3333FF;" parent="1" vertex="1">
          <mxGeometry x="551.5" y="1630" width="90" height="50" as="geometry" />
        </mxCell>
        <mxCell id="XenG6Du46tDOmNIxOZbn-2" value="&lt;u&gt;&lt;font color=&quot;#0000cc&quot;&gt;KategorieNR (FK)&lt;/font&gt;&lt;/u&gt;" style="ellipse;whiteSpace=wrap;html=1;strokeColor=#3333FF;" parent="1" vertex="1">
          <mxGeometry x="551.5" y="1690" width="90" height="50" as="geometry" />
        </mxCell>
        <mxCell id="XenG6Du46tDOmNIxOZbn-5" value="&lt;u&gt;KategorieNR (PK)&lt;/u&gt;" style="ellipse;whiteSpace=wrap;html=1;strokeColor=#3333FF;" parent="1" vertex="1">
          <mxGeometry x="510" y="1970" width="90" height="50" as="geometry" />
        </mxCell>
        <mxCell id="XenG6Du46tDOmNIxOZbn-6" value="Kategoriename" style="ellipse;whiteSpace=wrap;html=1;strokeColor=#3333FF;" parent="1" vertex="1">
          <mxGeometry x="513.5" y="2050" width="90" height="50" as="geometry" />
        </mxCell>
        <mxCell id="XenG6Du46tDOmNIxOZbn-11" value="1" style="text;html=1;align=center;verticalAlign=middle;whiteSpace=wrap;rounded=0;" parent="1" vertex="1">
          <mxGeometry x="330" y="1410" width="60" height="30" as="geometry" />
        </mxCell>
        <mxCell id="XenG6Du46tDOmNIxOZbn-12" value="1" style="text;html=1;align=center;verticalAlign=middle;whiteSpace=wrap;rounded=0;" parent="1" vertex="1">
          <mxGeometry x="330" y="1610" width="60" height="30" as="geometry" />
        </mxCell>
        <mxCell id="XenG6Du46tDOmNIxOZbn-13" value="1" style="text;html=1;align=center;verticalAlign=middle;whiteSpace=wrap;rounded=0;" parent="1" vertex="1">
          <mxGeometry x="331.5" y="1700" width="60" height="30" as="geometry" />
        </mxCell>
        <mxCell id="XenG6Du46tDOmNIxOZbn-14" value="n" style="text;html=1;align=center;verticalAlign=middle;whiteSpace=wrap;rounded=0;" parent="1" vertex="1">
          <mxGeometry x="330" y="1980" width="60" height="30" as="geometry" />
        </mxCell>
        <mxCell id="XenG6Du46tDOmNIxOZbn-16" value="&lt;u&gt;AllergenNR (PK)&lt;/u&gt;" style="ellipse;whiteSpace=wrap;html=1;strokeColor=#3333FF;" parent="1" vertex="1">
          <mxGeometry x="-370" y="1340" width="90" height="50" as="geometry" />
        </mxCell>
        <mxCell id="XenG6Du46tDOmNIxOZbn-17" value="Bezeichnung" style="ellipse;whiteSpace=wrap;html=1;strokeColor=#3333FF;" parent="1" vertex="1">
          <mxGeometry x="-375" y="1430" width="90" height="50" as="geometry" />
        </mxCell>
        <mxCell id="XenG6Du46tDOmNIxOZbn-20" value="&lt;u&gt;&lt;font color=&quot;#0000cc&quot;&gt;ZutatenNR (FK)&lt;/font&gt;&lt;/u&gt;" style="ellipse;whiteSpace=wrap;html=1;strokeColor=#3333FF;" parent="1" vertex="1">
          <mxGeometry x="-375" y="960" width="90" height="50" as="geometry" />
        </mxCell>
        <mxCell id="XenG6Du46tDOmNIxOZbn-21" value="&lt;font color=&quot;#0000cc&quot;&gt;&lt;u&gt;AllergenNR (FK)&lt;/u&gt;&lt;/font&gt;" style="ellipse;whiteSpace=wrap;html=1;strokeColor=#3333FF;" parent="1" vertex="1">
          <mxGeometry x="-375" y="1050" width="90" height="50" as="geometry" />
        </mxCell>
        <mxCell id="XenG6Du46tDOmNIxOZbn-24" value="1" style="text;html=1;align=center;verticalAlign=middle;whiteSpace=wrap;rounded=0;" parent="1" vertex="1">
          <mxGeometry x="305" y="730" width="60" height="30" as="geometry" />
        </mxCell>
        <mxCell id="XenG6Du46tDOmNIxOZbn-26" value="1" style="text;html=1;align=center;verticalAlign=middle;whiteSpace=wrap;rounded=0;" parent="1" vertex="1">
          <mxGeometry x="-210" y="970" width="60" height="30" as="geometry" />
        </mxCell>
        <mxCell id="XenG6Du46tDOmNIxOZbn-27" value="1" style="text;html=1;align=center;verticalAlign=middle;whiteSpace=wrap;rounded=0;" parent="1" vertex="1">
          <mxGeometry x="-210" y="1065" width="60" height="30" as="geometry" />
        </mxCell>
        <mxCell id="XenG6Du46tDOmNIxOZbn-28" value="n" style="text;html=1;align=center;verticalAlign=middle;whiteSpace=wrap;rounded=0;" parent="1" vertex="1">
          <mxGeometry x="-210" y="1360" width="60" height="30" as="geometry" />
        </mxCell>
      </root>
    </mxGraphModel>
  </diagram>
</mxfile>
